<svg id="Layer_2" data-name="Layer 2" xmlns="http://www.w3.org/2000/svg" width="199.41" height="286.48" viewBox="0 0 199.41 286.48"><defs><style>.cls-1,.cls-10,.cls-2,.cls-3,.cls-4,.cls-5,.cls-6,.cls-7,.cls-8,.cls-9{stroke:#000;stroke-miterlimit:10;}.cls-2,.cls-3{fill:#9e1d1d;}.cls-3,.cls-4{stroke-width:2px;}.cls-4,.cls-7{fill:none;}.cls-5{fill:#479338;}.cls-6{fill:#17b5e5;}.cls-8{fill:#020102;}.cls-9{fill:#fc3f5f;}.cls-10{fill:#fff;}</style></defs><title>bent</title><circle class="cls-1" cx="119.79" cy="27.8" r="1.26"/><circle class="cls-1" cx="134.02" cy="26.54" r="1.26"/><path class="cls-2" d="M180.5,71.14" transform="translate(-97.11 -66.5)"/><path class="cls-2" d="M151.16,125.34" transform="translate(-97.11 -66.5)"/><path class="cls-3" d="M240.42,98.84c-12.31-48.75-66.06-26.07-66.06-26.07-48.85,14-24.41,51.79-24.41,51.79.4-.26-50.92,32.27-51.67,39.34l43.11-19.81" transform="translate(-97.11 -66.5)"/><polygon class="cls-4" points="112.16 22.55 139.92 21.68 143.05 30.11 114.75 35.83 112.16 22.55"/><circle class="cls-1" cx="127.04" cy="27.12" r="1.26"/><circle class="cls-1" cx="119.38" cy="28.12" r="1.26"/><circle class="cls-1" cx="135.29" cy="26.14" r="1.26"/><path class="cls-1" d="M214.17,88.89s4.55-19.83,14.71-1.26" transform="translate(-97.11 -66.5)"/><path class="cls-5" d="M277.48,253.41s10.61-3,13.92-3.24,6,15.59,3.8,17.83-17.13,1.64-17.13,1.64" transform="translate(-97.11 -66.5)"/><path class="cls-6" d="M270.35,270.37s-8.67,1-9.65.55,1.16-9-.88-12.77,9.61-2.58,11.69-2.73c2.14,6.24-1.17,14.95-1.17,14.95s-.08,13.52,8.15-1.51S243.88,193,239.64,188.62s34.55-56.33,24.85-80.72c-10.11-25.42-94.5,9.3-113.33,17.44-2.29,1-3.61,1.59-3.71,1.64a5.68,5.68,0,0,0-3,3.56c-2.32,8.19-9,36.08-4.31,72.22,0,0-57.83,77.48-12.35,108.92,0,0-10.11-11.79-9-15.72s14,5.61-1.68-10.11c0,0,.49-42.23,25.27-60.08,0,0,11.79,86.47,55,88.71,0,0,13.48,11.23,19.65,36.5,0,0-7.3-84.22,21.9,0,0,0,6.18-35.93-7.86-59,0,0,8.42-3.93,5.05-16.28s-13.48-19.09-3.93-72.43c0,0,26.9,20.88,36.45,46.14,0,0-4.87,6-3.36,5.88" transform="translate(-97.11 -66.5)"/><polyline class="cls-7" points="163.67 198 160.3 198.4 160.29 202.47 156.19 202.47 156.38 194.44 160.18 194.43 160.3 198.4"/><path class="cls-8" d="M221.18,173.87c-4,11.89-12.89,46.14-.65,90.56a4.57,4.57,0,0,1-1.17,4.48c-6.38,6.3-27.23,25.68-37.79,20.64-12.56-6-47.72-82.82-21.13-108.8,19.32-18.88,46.37-15.3,57.43-12.78A4.56,4.56,0,0,1,221.18,173.87Z" transform="translate(-97.11 -66.5)"/><path class="cls-9" d="M158,247.82s17.87-40.39,31-24.07c0,0,6,7.42-4.28,7.71s-17.86,7.57-25,21.28" transform="translate(-97.11 -66.5)"/><path class="cls-10" d="M206.69,166.66s-7.5,14-11.52.24a.24.24,0,0,0-.46,0c-.89,2.73-4.3,11.12-10.14,1.67a.31.31,0,0,0-.58.12c-.4,2.78-2.12,10.53-8.05,2.59a.19.19,0,0,0-.34.13c.36,2.9,1.18,12.91-6.32,3.49a.16.16,0,0,0-.28.14c.77,2.69,2.55,10.64-5.56,3,0,0,17.13-18.14,54.63-10,0,0-8.81,13.67-11.38-1.79" transform="translate(-97.11 -66.5)"/><path class="cls-10" d="M208.45,278.68s-9-9.76-5.3,3.42a.12.12,0,0,1-.2.13c-1.66-1.75-8.61-8.57-5.72,3.56a.13.13,0,0,1-.21.12c-1.65-2.14-8.27-10.1-5.65,3.3C191.37,289.22,202.23,284,208.45,278.68Z" transform="translate(-97.11 -66.5)"/><ellipse class="cls-1" cx="115.13" cy="68.2" rx="1.93" ry="3.7"/><ellipse class="cls-1" cx="145.46" cy="67.06" rx="2.41" ry="5.86"/><path class="cls-7" d="M206.69,127.69s6.34-7.14,10.2,0" transform="translate(-97.11 -66.5)"/><path class="cls-7" d="M236.82,123.36s3.82-4.33,9.94,0" transform="translate(-97.11 -66.5)"/><path class="cls-2" d="M240.42,98.84" transform="translate(-97.11 -66.5)"/><circle class="cls-1" cx="158.17" cy="198.45" r="0.57"/><path class="cls-4" d="M150,124.56c56.33-23.66,90.47-25.72,90.47-25.72" transform="translate(-97.11 -66.5)"/></svg>